{"title":"Annie Lennox - The Annie Lennox Collection (Deluxe Ed. 2 Cd) (20","uid":4779561,"size":636251329,"categoryP":"audio","categoryS":"flac","magnet":"?xt=urn:btih:43fed1a2e3c24b1596c06dbd20aedc2da27b786c&amp;dn=Annie+Lennox+-+The+Annie+Lennox+Collection+%28Deluxe+Ed.+2+Cd%29+%2820&amp;tr=udp%3A%2F%2Ftracker.openbittorrent.com%3A80&amp;tr=udp%3A%2F%2Fopen.demonii.com%3A1337&amp;tr=udp%3A%2F%2Ftracker.coppersurfer.tk%3A6969&amp;tr=udp%3A%2F%2Fexodus.desync.com%3A6969","seeders":5,"leechers":0,"uploader":"s1l3tt1na","files":11,"time":1237331505,"description":"Annie Lennox - The Annie Lennox Collection (Deluxe Ed. 2 Cd) (2009) [EAC-FLAC-CUE]\n\nArtist/Band: Annie Lennox\n\nAlbum: Collection\n\nYear: 2009\n\nCountry: UK\n\nLabel: Sony\n\nGenre: Pop\n\nFully Tagged\n\nTotal Time 01:39:20\n\nQuality: FLAC - LossLess\n\n\nTracklist\n\n1. Little Bird\n2. Walking on Broken Glass\n3. Why\n4. No More &quot;I Love You's&quot;\n5. Precious\n6. Love Song for a Vampire\n7. A Thousand Beautiful Things\n8. Sing\n9. Pavement Cracks\n10. A Whiter Shade of Pale\n11. Cold\n12. Dark Road\n13. Pattern of My Life\n14. Shining Light\n\nLimited edition UK bonus CD\n\n1. Into the West\n2. Ladies of the Canyon\n3. Hush, Hush, Hush\n4. Many Rivers to Cross\n5. Dream Angus\n6. Mama\n7. Everybody Hurts (with Alicia Keys)\n8. Ev'ry Time We Say Goodbye\n\n\nThe Annie Lennox Collection is the first greatest hits compilation by Scottish singer-songwriter Annie Lennox. It was released on March 2009 and also contains two newly recorded songs, &quot;Shining Light&quot;, originally a single by Ash, and a cover of Keane's rare B-side &quot;Closer Now&quot;, retitled &quot;Pattern of My Life&quot;. The artwork was shot by rock singer Bryan Adams.\n\n\nCover Included (Front - Back - Cd1 - Cd2)\n\n\nLOG EAC - CD1\n\nExact Audio Copy V0.99 prebeta 4 from 23. January 2008\n\nEAC extraction logfile from 17. March 2009, 22:17\n\nAnnie Lennox / The Annie Lennox Collection - CD 1\n\nUsed drive  : HL-DT-STDVDRAM GSA-4167B   Adapter: 1  ID: 1\n\nRead mode               : Secure\nUtilize accurate stream : Yes\nDefeat audio cache      : Yes\nMake use of C2 pointers : No\n\nRead offset correction                      : 667\nOverread into Lead-In and Lead-Out          : No\nFill up missing offset samples with silence : Yes\nDelete leading and trailing silent blocks   : No\nNull samples used in CRC calculations       : Yes\nUsed interface                              : Installed external ASPI interface\n\nUsed output format              : User Defined Encoder\nSelected bitrate                : 768 kBit/s\nQuality                         : High\nAdd ID3 tag                     : Yes\nCommand line compressor         : C:ProgrammiExact Audio CopyFLACFLAC.EXE\nAdditional command line options : -8 -V -T &quot;ARTIST=%a&quot; -T &quot;TITLE=%t&quot; -T &quot;ALBUM=%g&quot; -T &quot;DATE=%y&quot; -T &quot;TRACKNUMBER=%n&quot; -T &quot;GENRE=%m&quot; -T &quot;COMMENT=%e&quot; %s -o %d\n\n\nTOC of the extracted CD\n\n     Track |   Start  |  Length  | Start sector | End sector \n    ---------------------------------------------------------\n        1  |  0:00.00 |  4:49.30 |         0    |    21704   \n        2  |  4:49.30 |  4:10.62 |     21705    |    40516   \n        3  |  9:00.17 |  4:53.13 |     40517    |    62504   \n        4  | 13:53.30 |  4:52.12 |     62505    |    84416   \n        5  | 18:45.42 |  4:15.47 |     84417    |   103588   \n        6  | 23:01.14 |  5:18.41 |    103589    |   127479   \n        7  | 28:19.55 |  3:06.20 |    127480    |   141449   \n        8  | 31:26.00 |  4:20.03 |    141450    |   160952   \n        9  | 35:46.03 |  5:09.56 |    160953    |   184183   \n       10  | 40:55.59 |  4:19.21 |    184184    |   203629   \n       11  | 45:15.05 |  4:28.63 |    203630    |   223792   \n       12  | 49:43.68 |  3:47.29 |    223793    |   240846   \n       13  | 53:31.22 |  4:18.70 |    240847    |   260266   \n       14  | 57:50.17 |  4:19.48 |    260267    |   279739   \n\n\nRange status and errors\n\nSelected range\n\n     Filename C:s1l3tt1naAnnie Lennox - The Annie Lennox Collection - CD 1.wav\n\n     Peak level 99.5 %\n     Range quality 100.0 %\n     Test CRC 58B482C3\n     Copy CRC 58B482C3\n     Copy OK\n\nNo errors occurred\n\n\nLOG EAC - CD2\n\nExact Audio Copy V0.99 prebeta 4 from 23. January 2008\n\nEAC extraction logfile from 17. March 2009, 21:41\n\nAnnie Lennox / The Annie Lennox Collection - CD 2\n\nUsed drive  : HL-DT-STDVDRAM GSA-4167B   Adapter: 1  ID: 1\n\nRead mode               : Secure\nUtilize accurate stream : Yes\nDefeat audio cache      : Yes\nMake use of C2 pointers : No\n\nRead offset correction                      : 667\nOverread into Lead-In and Lead-Out          : No\nFill up missing offset samples with silence : Yes\nDelete leading and trailing silent blocks   : No\nNull samples used in CRC calculations       : Yes\nUsed interface                              : Installed external ASPI interface\n\nUsed output format              : User Defined Encoder\nSelected bitrate                : 768 kBit/s\nQuality                         : High\nAdd ID3 tag                     : Yes\nCommand line compressor         : C:ProgrammiExact Audio CopyFLACFLAC.EXE\nAdditional command line options : -8 -V -T &quot;ARTIST=%a&quot; -T &quot;TITLE=%t&quot; -T &quot;ALBUM=%g&quot; -T &quot;DATE=%y&quot; -T &quot;TRACKNUMBER=%n&quot; -T &quot;GENRE=%m&quot; -T &quot;COMMENT=%e&quot; %s -o %d\n\n\nTOC of the extracted CD\n\n     Track |   Start  |  Length  | Start sector | End sector \n    ---------------------------------------------------------\n        1  |  0:00.00 |  5:45.44 |         0    |    25918   \n        2  |  5:45.44 |  3:43.18 |     25919    |    42661   \n        3  |  9:28.62 |  4:45.04 |     42662    |    64040   \n        4  | 14:13.66 |  3:25.69 |     64041    |    79484   \n        5  | 17:39.60 |  4:53.17 |     79485    |   101476   \n        6  | 22:33.02 |  4:23.07 |    101477    |   121208   \n        7  | 26:56.09 |  6:16.53 |    121209    |   149461   \n        8  | 33:12.62 |  3:58.19 |    149462    |   167330   \n\n\nRange status and errors\n\nSelected range\n\n     Filename C:s1l3tt1naAnnie Lennox - The Annie Lennox Collection - CD 2.wav\n\n     Peak level 100.0 %\n     Range quality 100.0 %\n     Test CRC 04EC190A\n     Copy CRC 04EC190A\n     Copy OK\n\nNo errors occurred\n\n\nby s1l3tt1na (Ultima Frontiera)\t","torrent":{"xt":"urn:btih:43fed1a2e3c24b1596c06dbd20aedc2da27b786c","amp;dn":"Annie+Lennox+-+The+Annie+Lennox+Collection+%28Deluxe+Ed.+2+Cd%29+%2820","amp;tr":["udp%3A%2F%2Ftracker.openbittorrent.com%3A80","udp%3A%2F%2Fopen.demonii.com%3A1337","udp%3A%2F%2Ftracker.coppersurfer.tk%3A6969","udp%3A%2F%2Fexodus.desync.com%3A6969"],"infoHash":"43fed1a2e3c24b1596c06dbd20aedc2da27b786c","infoHashBuffer":{"type":"Buffer","data":[67,254,209,162,227,194,75,21,150,192,109,189,32,174,220,45,162,123,120,108]},"announce":[],"urlList":[]}}